<?xml version="1.0" standalone="no"?>
<!DOCTYPE svg PUBLIC "-//W3C//DTD SVG 20010904//EN"
 "http://www.w3.org/TR/2001/REC-SVG-20010904/DTD/svg10.dtd">
<svg version="1.0" xmlns="http://www.w3.org/2000/svg"
 width="303.000000pt" height="303.000000pt" viewBox="0 0 303.000000 303.000000"
 preserveAspectRatio="xMidYMid meet">
<metadata>
Created by potrace 1.14, written by Peter Selinger 2001-2017
</metadata>
<g transform="translate(0.000000,303.000000) scale(0.100000,-0.100000)"
fill="#000000" stroke="none">
<path d="M1315 3005 c-638 -90 -1135 -548 -1269 -1170 -130 -599 122 -1222
633 -1562 290 -192 659 -283 991 -243 529 64 968 375 1191 844 197 416 197
876 0 1292 -277 583 -914 929 -1546 839z m-585 -1420 l0 -625 -65 0 -65 0 0
625 0 625 65 0 65 0 0 -625z m680 -5 l0 -570 -240 0 -240 0 0 65 0 65 170 0
170 0 0 445 0 445 -170 0 -170 0 0 60 0 60 240 0 240 0 0 -570z m940 511 l0
-59 -47 -7 c-105 -15 -173 -68 -217 -165 -35 -78 -47 -145 -47 -270 0 -184 39
-310 120 -383 39 -35 119 -67 168 -67 22 0 23 -4 23 -61 l0 -61 -67 7 c-179
19 -290 115 -350 303 -31 96 -43 299 -23 419 35 221 160 366 338 392 108 16
102 19 102 -48z"/>
</g>
</svg>
